<svg width="20" height="19" viewBox="0 0 20 19" fill="none" xmlns="http://www.w3.org/2000/svg">
<path d="M10 18.2334C4.99023 18.2334 0.920898 14.1641 0.920898 9.1543C0.920898 4.14453 4.99023 0.0751953 10 0.0751953C15.0098 0.0751953 19.0791 4.14453 19.0791 9.1543C19.0791 14.1641 15.0098 18.2334 10 18.2334ZM10 16.4404C14.0342 16.4404 17.2949 13.1885 17.2949 9.1543C17.2949 5.12012 14.0342 1.85938 10 1.85938C5.96582 1.85938 2.70508 5.12012 2.70508 9.1543C2.70508 13.1885 5.96582 16.4404 10 16.4404ZM10 13.584C9.78906 13.584 9.60449 13.5137 9.39355 13.3115L6.52832 10.5518C6.37891 10.4023 6.2998 10.2441 6.2998 10.0332C6.2998 9.62891 6.61621 9.34766 7.01172 9.34766C7.20508 9.34766 7.41602 9.42676 7.54785 9.58496L8.78711 10.8945L9.26172 11.4658L9.2002 10.1738V5.50684C9.2002 5.08496 9.56055 4.72461 10 4.72461C10.4395 4.72461 10.7998 5.08496 10.7998 5.50684V10.1738L10.7383 11.4658L11.2129 10.8945L12.4521 9.58496C12.584 9.42676 12.7861 9.34766 12.9795 9.34766C13.375 9.34766 13.7002 9.62891 13.7002 10.0332C13.7002 10.2441 13.6211 10.4023 13.4717 10.5518L10.6064 13.3115C10.4043 13.5137 10.2109 13.584 10 13.584Z" fill="white"/>
</svg>
