<svg width="18" height="17" viewBox="0 0 18 17" fill="none" xmlns="http://www.w3.org/2000/svg">
<path d="M9 16.4297C4.54688 16.4297 0.929688 12.8125 0.929688 8.35938C0.929688 3.90625 4.54688 0.289062 9 0.289062C13.4531 0.289062 17.0703 3.90625 17.0703 8.35938C17.0703 12.8125 13.4531 16.4297 9 16.4297ZM9.00781 12.4531C9.20312 12.4531 9.375 12.3906 9.57031 12.2031L12.2188 9.64844C12.3594 9.51562 12.4297 9.36719 12.4297 9.17188C12.4297 8.79688 12.1328 8.53125 11.7656 8.53125C11.5781 8.53125 11.3984 8.60156 11.2656 8.75L10.1328 9.96094L9.69531 10.4844L9.75781 9.28125V5C9.75781 4.60156 9.42188 4.26562 9.00781 4.26562C8.59375 4.26562 8.25781 4.60156 8.25781 5V9.28125L8.32031 10.4844L7.88281 9.96094L6.74219 8.75C6.61719 8.60156 6.42188 8.53125 6.24219 8.53125C5.875 8.53125 5.57812 8.79688 5.57812 9.17188C5.57812 9.36719 5.65625 9.51562 5.79688 9.64844L8.44531 12.2031C8.64062 12.3906 8.8125 12.4531 9.00781 12.4531Z" fill="#CCFF00"/>
</svg>
