<svg width="18" height="17" viewBox="0 0 18 17" fill="none" xmlns="http://www.w3.org/2000/svg">
<path d="M9 16.4297C4.54688 16.4297 0.929688 12.8125 0.929688 8.35938C0.929688 3.90625 4.54688 0.289062 9 0.289062C13.4531 0.289062 17.0703 3.90625 17.0703 8.35938C17.0703 12.8125 13.4531 16.4297 9 16.4297ZM3.57031 8.35938C3.57031 9.90625 4.55469 10.9453 6.01562 10.9453C6.78125 10.9453 7.42969 10.6172 8.14062 9.95312L9.00781 9.11719L9.88281 9.95312C10.6016 10.6328 11.25 10.9453 12.0078 10.9453C13.4688 10.9453 14.4531 9.90625 14.4531 8.35938C14.4531 6.8125 13.4688 5.76562 12.0078 5.76562C11.2422 5.76562 10.5938 6.07812 9.88281 6.76562L9.00781 7.60156L8.14062 6.76562C7.4375 6.09375 6.78125 5.76562 6.01562 5.76562C4.55469 5.76562 3.57031 6.8125 3.57031 8.35938ZM4.67188 8.35938C4.67188 7.44531 5.19531 6.85938 6.01562 6.85938C6.45312 6.86719 6.84375 7.0625 7.36719 7.5625L8.22656 8.35938L7.36719 9.15625C6.85156 9.64062 6.46094 9.85156 6.01562 9.85156C5.19531 9.85156 4.67188 9.26562 4.67188 8.35938ZM9.79688 8.35938L10.6562 7.5625C11.1797 7.0625 11.5703 6.86719 12.0078 6.85938C12.8203 6.85938 13.3516 7.44531 13.3516 8.35938C13.3516 9.26562 12.8281 9.85156 12.0078 9.85156C11.5625 9.85156 11.1641 9.64062 10.6562 9.15625L9.79688 8.35938Z" fill="#CCFF00"/>
</svg>
