<svg width="32" height="32" viewBox="0 0 32 32" fill="none" xmlns="http://www.w3.org/2000/svg">
<path fill-rule="evenodd" clip-rule="evenodd" d="M18.3469 5.7899C17.2947 3.40369 13.909 3.40369 12.8568 5.7899L12.4367 6.74288C11.9091 7.93937 10.6673 8.65631 9.36733 8.51495L8.33193 8.40236C5.73935 8.12044 4.04648 11.0526 5.58693 13.1568L6.20213 13.9972C6.97454 15.0524 6.97454 16.4863 6.20213 17.5414L5.58693 18.3818C4.04649 20.4861 5.73935 23.4182 8.33193 23.1363L9.36733 23.0237C10.6673 22.8823 11.9091 23.5993 12.4367 24.7957L12.8568 25.7487C13.909 28.1349 17.2947 28.1349 18.3469 25.7487L18.7671 24.7957C19.2946 23.5993 20.5364 22.8823 21.8364 23.0237L22.8718 23.1363C25.4644 23.4182 27.1572 20.4861 25.6168 18.3818L25.0016 17.5414C24.2292 16.4863 24.2292 15.0524 25.0016 13.9972L25.6168 13.1568C27.1572 11.0526 25.4644 8.12044 22.8718 8.40236L21.8364 8.51495C20.5364 8.65631 19.2946 7.93937 18.7671 6.74288L18.3469 5.7899ZM15.6019 19.5824C17.7077 19.5824 19.4148 17.8753 19.4148 15.7695C19.4148 13.6636 17.7077 11.9565 15.6019 11.9565C13.4961 11.9565 11.789 13.6636 11.789 15.7695C11.789 17.8753 13.4961 19.5824 15.6019 19.5824Z" fill="white" fill-opacity="0.5"/>
</svg>
