<svg width="7" height="11" viewBox="0 0 7 11" fill="none" xmlns="http://www.w3.org/2000/svg">
<path d="M6.27344 5.76953C6.27344 5.96875 6.20312 6.13867 6.04492 6.29102L1.47461 10.7617C1.3457 10.8906 1.1875 10.9551 1 10.9551C0.619141 10.9551 0.314453 10.6621 0.314453 10.2754C0.314453 10.0879 0.396484 9.91797 0.519531 9.78906L4.64453 5.76953L0.519531 1.75C0.390625 1.61523 0.314453 1.44531 0.314453 1.25781C0.314453 0.876953 0.619141 0.583984 1 0.583984C1.1875 0.583984 1.3457 0.648438 1.47461 0.777344L6.04492 5.24805C6.19727 5.40039 6.27344 5.57031 6.27344 5.76953Z" fill="white"/>
</svg>
