<svg width="11" height="11" viewBox="0 0 11 11" fill="none" xmlns="http://www.w3.org/2000/svg">
<path d="M5.5 10.5186C2.7168 10.5186 0.456055 8.25781 0.456055 5.47461C0.456055 2.69141 2.7168 0.430664 5.5 0.430664C8.2832 0.430664 10.5439 2.69141 10.5439 5.47461C10.5439 8.25781 8.2832 10.5186 5.5 10.5186ZM4.95801 7.88672C5.13867 7.88672 5.29492 7.79395 5.40723 7.62793L7.69238 4.06348C7.76074 3.95605 7.81934 3.83398 7.81934 3.72168C7.81934 3.46777 7.59961 3.29688 7.35547 3.29688C7.19922 3.29688 7.0625 3.37988 6.95996 3.55078L4.93848 6.7832L3.99609 5.58691C3.87402 5.43066 3.75684 5.37207 3.60547 5.37207C3.35156 5.37207 3.15625 5.57715 3.15625 5.82617C3.15625 5.94824 3.2002 6.06543 3.28809 6.17285L4.48438 7.62793C4.62109 7.80371 4.77246 7.88672 4.95801 7.88672Z" fill="white"/>
</svg>
