<svg width="19" height="21" viewBox="0 0 19 21" fill="none" xmlns="http://www.w3.org/2000/svg">
<path d="M9.65234 20.2334C4.64258 20.2334 0.573242 16.1641 0.573242 11.1543C0.573242 6.75098 3.71973 3.07715 7.85059 2.25977V1.09082C7.85059 0.431641 8.34277 0.264648 8.83496 0.625L11.6738 2.66406C12.0693 2.94531 12.0605 3.38477 11.6738 3.66602L8.82617 5.70508C8.34277 6.05664 7.85059 5.88965 7.85059 5.23926V4.09668C4.7041 4.8877 2.35742 7.72656 2.35742 11.1543C2.35742 15.1885 5.61816 18.4404 9.65234 18.4404C13.6865 18.4404 16.9473 15.1885 16.9473 11.1543C16.9473 8.79004 15.8223 6.72461 14.0908 5.39746C13.6777 5.0459 13.5459 4.53613 13.8535 4.10547C14.1348 3.70996 14.7324 3.61328 15.1895 4C17.3604 5.66992 18.7314 8.2627 18.7314 11.1543C18.7314 16.1641 14.6621 20.2334 9.65234 20.2334ZM11.7617 14.7666C10.0303 14.7666 9.39746 13.0352 9.39746 11.2861C9.39746 9.55469 10.0127 7.82324 11.7617 7.82324C13.4932 7.82324 14.1172 9.5459 14.1172 11.2861C14.1172 13.0264 13.4932 14.7666 11.7617 14.7666ZM7.33203 14.7139C6.91895 14.7139 6.66406 14.4238 6.66406 14.0107V9.23828H6.64648L5.84668 9.83594C5.74121 9.91504 5.65332 9.95898 5.52148 9.95898C5.24902 9.95898 5.05566 9.74805 5.05566 9.47559C5.05566 9.24707 5.16992 9.08887 5.3457 8.95703L6.26855 8.27148C6.56738 8.05176 6.83984 7.88477 7.22656 7.88477C7.70117 7.88477 7.99121 8.15723 7.99121 8.63184V14.0107C7.99121 14.4238 7.74512 14.7139 7.33203 14.7139ZM11.7617 13.7031C12.4385 13.7031 12.7725 12.6924 12.7725 11.2861C12.7725 9.88867 12.4297 8.88672 11.7617 8.88672C11.085 8.88672 10.751 9.88867 10.751 11.2861C10.751 12.6924 11.085 13.7031 11.7617 13.7031Z" fill="white"/>
</svg>
