<svg width="18" height="17" viewBox="0 0 18 17" fill="none" xmlns="http://www.w3.org/2000/svg">
<path d="M9 16.4297C4.54688 16.4297 0.929688 12.8125 0.929688 8.35938C0.929688 3.90625 4.54688 0.289062 9 0.289062C13.4531 0.289062 17.0703 3.90625 17.0703 8.35938C17.0703 12.8125 13.4531 16.4297 9 16.4297ZM6.73438 12.4922L9 10.8359L11.2656 12.4922C11.75 12.8594 12.2656 12.4922 12.0703 11.9141L11.1797 9.24219L13.4609 7.60938C13.8984 7.29688 13.7812 6.64062 13.1484 6.64844L10.3438 6.67188L9.49219 3.99219C9.3125 3.42969 8.6875 3.42969 8.50781 3.99219L7.65625 6.67188L4.85156 6.64844C4.22656 6.64062 4.09375 7.28906 4.53906 7.60938L6.82031 9.25L5.92969 11.9141C5.73438 12.4844 6.25781 12.8594 6.73438 12.4922Z" fill="#CCFF00"/>
</svg>
