<svg width="36" height="36" viewBox="0 0 36 36" fill="none" xmlns="http://www.w3.org/2000/svg">
<path fill-rule="evenodd" clip-rule="evenodd" d="M18.3469 9.7899C17.2947 7.40369 13.909 7.40369 12.8568 9.7899L12.4367 10.7429C11.9091 11.9394 10.6673 12.6563 9.36733 12.5149L8.33193 12.4024C5.73935 12.1204 4.04648 15.0526 5.58693 17.1568L6.20213 17.9972C6.97454 19.0524 6.97454 20.4863 6.20213 21.5414L5.58693 22.3818C4.04649 24.4861 5.73935 27.4182 8.33193 27.1363L9.36733 27.0237C10.6673 26.8823 11.9091 27.5993 12.4367 28.7957L12.8568 29.7487C13.909 32.1349 17.2947 32.1349 18.3469 29.7487L18.7671 28.7957C19.2946 27.5993 20.5364 26.8823 21.8364 27.0237L22.8718 27.1363C25.4644 27.4182 27.1572 24.4861 25.6168 22.3818L25.0016 21.5414C24.2292 20.4863 24.2292 19.0524 25.0016 17.9972L25.6168 17.1568C27.1572 15.0526 25.4644 12.1204 22.8718 12.4024L21.8364 12.5149C20.5364 12.6563 19.2946 11.9394 18.7671 10.7429L18.3469 9.7899ZM15.6019 23.5824C17.7077 23.5824 19.4148 21.8753 19.4148 19.7695C19.4148 17.6636 17.7077 15.9565 15.6019 15.9565C13.4961 15.9565 11.789 17.6636 11.789 19.7695C11.789 21.8753 13.4961 23.5824 15.6019 23.5824Z" fill="white"/>
<circle cx="32" cy="4" r="4" fill="#CCFF00"/>
</svg>
