<svg width="18" height="21" viewBox="0 0 18 21" fill="none" xmlns="http://www.w3.org/2000/svg">
<path d="M4.96582 20.2598C3.60352 20.2598 2.74219 19.4512 2.68066 18.0977L2.08301 5.42383H1.10742C0.685547 5.42383 0.333984 5.08984 0.333984 4.65039C0.333984 4.21973 0.685547 3.88574 1.10742 3.88574H5.00977V2.56738C5.00977 1.22266 5.87109 0.422852 7.32129 0.422852H10.6611C12.1201 0.422852 12.9727 1.22266 12.9727 2.56738V3.88574H16.8838C17.3232 3.88574 17.666 4.21973 17.666 4.65039C17.666 5.08984 17.3232 5.42383 16.8838 5.42383H15.917L15.3193 18.0889C15.2578 19.4424 14.3877 20.2598 13.043 20.2598H4.96582ZM6.62695 2.64648V3.88574H11.3555V2.64648C11.3555 2.18945 11.0391 1.89941 10.5469 1.89941H7.43555C6.94336 1.89941 6.62695 2.18945 6.62695 2.64648ZM5.13281 18.7041H12.8496C13.3506 18.7041 13.7021 18.3525 13.7197 17.834L14.291 5.42383H3.67383L4.27148 17.834C4.29785 18.3525 4.64941 18.7041 5.13281 18.7041ZM6.40723 17.2891C6.05566 17.2891 5.80957 17.0605 5.80078 16.709L5.53711 7.49805C5.52832 7.15527 5.76562 6.91797 6.13477 6.91797C6.48633 6.91797 6.73242 7.14648 6.74121 7.49805L7.00488 16.709C7.01367 17.0518 6.77637 17.2891 6.40723 17.2891ZM9 17.2891C8.63086 17.2891 8.38477 17.0518 8.38477 16.709V7.49805C8.38477 7.15527 8.63086 6.91797 9 6.91797C9.36914 6.91797 9.61523 7.15527 9.61523 7.49805V16.709C9.61523 17.0518 9.36914 17.2891 9 17.2891ZM11.5928 17.2891C11.2236 17.2891 10.9775 17.0518 10.9863 16.709L11.2588 7.49805C11.2676 7.14648 11.5137 6.91797 11.8652 6.91797C12.2256 6.91797 12.4717 7.15527 12.4629 7.49805L12.1904 16.709C12.1816 17.0605 11.9443 17.2891 11.5928 17.2891Z" fill="white"/>
</svg>
