<svg width="32" height="32" viewBox="0 0 32 32" fill="none" xmlns="http://www.w3.org/2000/svg">
<path d="M9.81836 6.41797C9.87695 5.55859 10.3945 5.08984 11.3223 5.08984H20.668C21.6055 5.08984 22.1133 5.55859 22.1816 6.41797H9.81836ZM7.82617 9.24023C7.96289 8.3125 8.43164 7.78516 9.4668 7.78516H22.5332C23.5684 7.78516 24.0371 8.3125 24.1738 9.24023H7.82617ZM11.2148 26.7988C11.8984 25.7832 12.2988 24.5723 12.2988 23.2832C12.2988 19.7676 9.4082 16.8672 5.88281 16.8672V13.8984C5.88281 11.877 6.9375 10.832 8.97852 10.832H23.0117C25.043 10.832 26.1074 11.8867 26.1074 13.8984V23.7324C26.1074 25.7441 25.043 26.7988 23.0117 26.7988H11.2148ZM5.89258 28.3125C3.13867 28.3125 0.863281 26.0469 0.863281 23.2832C0.863281 20.5293 3.13867 18.2637 5.89258 18.2637C8.64648 18.2637 10.9121 20.5293 10.9121 23.2832C10.9121 26.0273 8.61719 28.3125 5.89258 28.3125ZM4.23242 25.2559C4.23242 25.6953 4.68164 25.8906 5.05273 25.6562L8.29492 23.7324C8.66602 23.5176 8.63672 23.0488 8.24609 22.8145L5.05273 20.9004C4.68164 20.6758 4.23242 20.8711 4.23242 21.3105V25.2559Z" fill="white" fill-opacity="0.5"/>
</svg>
