<svg width="32" height="32" viewBox="0 0 32 32" fill="none" xmlns="http://www.w3.org/2000/svg">
<rect width="32" height="32" rx="16" fill="url(#paint0_linear_2546_5568)"/>
<path d="M5.5 15.8594C5.5 12.9141 7.36719 10.9922 10.1328 10.9922C11.5938 10.9922 12.8281 11.6094 14.1484 12.8828L16 14.6719L17.8516 12.8828C19.1797 11.6094 20.4141 10.9922 21.875 10.9922C24.6328 10.9922 26.5 12.9141 26.5 15.8594C26.5 18.8047 24.6328 20.7266 21.875 20.7266C20.4141 20.7266 19.1797 20.1094 17.8516 18.8281L16 17.0391L14.1484 18.8281C12.8281 20.1094 11.5938 20.7266 10.1328 20.7266C7.36719 20.7266 5.5 18.8047 5.5 15.8594ZM7.24219 15.8594C7.24219 17.7656 8.41406 18.9844 10.1328 18.9844C11.0938 18.9844 11.9453 18.5156 12.9297 17.5938L14.7812 15.8594L12.9297 14.125C11.9453 13.2031 11.0938 12.7266 10.1328 12.7266C8.41406 12.7266 7.24219 13.9531 7.24219 15.8594ZM17.2266 15.8594L19.0781 17.5938C20.0547 18.5156 20.9141 18.9844 21.875 18.9844C23.5938 18.9844 24.7656 17.7656 24.7656 15.8594C24.7656 13.9531 23.5938 12.7266 21.875 12.7266C20.9062 12.7266 20.0547 13.2031 19.0781 14.125L17.2266 15.8594Z" fill="white"/>
<defs>
<linearGradient id="paint0_linear_2546_5568" x1="32" y1="0" x2="0" y2="32" gradientUnits="userSpaceOnUse">
<stop stop-color="#CC00FF"/>
<stop offset="1" stop-color="#CCFF00"/>
</linearGradient>
</defs>
</svg>
