<svg width="16" height="21" viewBox="0 0 16 21" fill="none" xmlns="http://www.w3.org/2000/svg">
<path d="M7.99121 13.7031C7.55176 13.7031 7.18262 13.334 7.18262 12.9033V4.0791L7.25293 2.76953L6.78711 3.33203L5.53027 4.66797C5.38965 4.82617 5.17871 4.91406 4.97656 4.91406C4.57227 4.91406 4.25586 4.62402 4.25586 4.21094C4.25586 4 4.34375 3.8418 4.48438 3.69238L7.38477 0.90625C7.58691 0.704102 7.78027 0.633789 7.99121 0.633789C8.21094 0.633789 8.4043 0.704102 8.60645 0.90625L11.498 3.69238C11.6475 3.8418 11.7354 4 11.7354 4.21094C11.7354 4.62402 11.4014 4.91406 11.0059 4.91406C10.8037 4.91406 10.6016 4.82617 10.4609 4.66797L9.2041 3.33203L8.73828 2.76953L8.80859 4.0791V12.9033C8.80859 13.334 8.43945 13.7031 7.99121 13.7031ZM2.9375 20.7871C1.03906 20.7871 0.0546875 19.8115 0.0546875 17.9307V9.31738C0.0546875 7.43652 1.03906 6.46094 2.9375 6.46094H5.52148V8.18359H3.04297C2.22559 8.18359 1.77734 8.61426 1.77734 9.4668V17.7812C1.77734 18.6338 2.22559 19.0645 3.04297 19.0645H12.9482C13.7568 19.0645 14.2139 18.6338 14.2139 17.7812V9.4668C14.2139 8.61426 13.7568 8.18359 12.9482 8.18359H10.4609V6.46094H13.0537C14.9521 6.46094 15.9365 7.44531 15.9365 9.31738V17.9307C15.9365 19.8027 14.9521 20.7871 13.0537 20.7871H2.9375Z" fill="white"/>
</svg>
