<svg width="36" height="36" viewBox="0 0 36 36" fill="none" xmlns="http://www.w3.org/2000/svg">
<path d="M5.08203 20.2715C4.45703 20.2715 4.07617 19.8418 4.07617 19.334C4.07617 19.0605 4.20312 18.7773 4.45703 18.5625L14.6328 10.0176C15.0625 9.66602 15.5312 9.49023 16 9.49023C16.4688 9.49023 16.9375 9.66602 17.3672 10.0176L22.1914 14.0801V12.3418C22.1914 11.9121 22.4844 11.6289 22.9238 11.6289H24.2422C24.6719 11.6289 24.9551 11.9121 24.9551 12.3418V16.3945L27.543 18.5625C27.7969 18.7773 27.9238 19.0605 27.9238 19.334C27.9238 19.8418 27.543 20.2715 26.9277 20.2715C26.625 20.2715 26.3516 20.1152 26.1172 19.9102L16.4199 11.7754C16.2832 11.6582 16.1367 11.6094 16 11.6094C15.8633 11.6094 15.7168 11.6582 15.5898 11.7754L5.88281 19.9102C5.64844 20.1152 5.38477 20.2715 5.08203 20.2715ZM7.24023 28.1621V20.6914L15.3945 13.8555C15.7656 13.543 16.2246 13.5332 16.5957 13.8555L24.7598 20.6914V28.1621C24.7598 29.5684 23.8809 30.4082 22.4355 30.4082H9.55469C8.11914 30.4082 7.24023 29.5684 7.24023 28.1621ZM18.5781 21.3457C19.0566 21.2285 19.2031 21.1113 19.2031 20.5547V18.6895C19.2031 18.2988 19.0469 18.1328 18.5293 18.2598L15.7559 18.9434C15.2773 19.0703 15.1602 19.1777 15.1602 19.7441V23.9238C15.1602 24.3438 15.1309 24.4121 14.6621 24.5293L13.8027 24.7637C12.8945 24.998 12.1914 25.5352 12.1914 26.4531C12.1914 27.2832 12.8164 27.8789 13.7832 27.8789C15.1504 27.8789 16.0879 26.8926 16.0879 25.4961V22.3418C16.0879 22 16.1562 21.9316 16.3613 21.8828L18.5781 21.3457Z" fill="white"/>
<circle cx="32" cy="4" r="4" fill="#CCFF00"/>
</svg>
