<svg width="64" height="64" viewBox="0 0 64 64" fill="none" xmlns="http://www.w3.org/2000/svg">
<rect width="64" height="64" rx="32" fill="white" fill-opacity="0.15"/>
<path d="M24.25 45.0625C22.7656 45.0625 22.0156 44.2969 22.0156 42.8125V20.6094C22.0156 19.1406 22.7812 18.375 24.25 18.375H27.9062C29.3906 18.375 30.1406 19.0938 30.1406 20.6094V42.8125C30.1406 44.2969 29.3906 45.0625 27.9062 45.0625H24.25ZM36.0781 45.0625C34.5938 45.0625 33.8438 44.2969 33.8438 42.8125V20.6094C33.8438 19.1406 34.5938 18.375 36.0781 18.375H39.7344C41.2031 18.375 41.9688 19.0938 41.9688 20.6094V42.8125C41.9688 44.2969 41.2031 45.0625 39.7344 45.0625H36.0781Z" fill="white"/>
</svg>
