<svg width="26" height="21" viewBox="0 0 26 21" fill="none" xmlns="http://www.w3.org/2000/svg">
<path d="M1.97266 2.30078C1.38672 2.30078 0.917969 1.82031 0.917969 1.23438C0.917969 0.648438 1.375 0.179688 1.97266 0.179688H24.0156C24.6133 0.179688 25.082 0.648438 25.082 1.23438C25.082 1.82031 24.6016 2.30078 24.0156 2.30078H1.97266ZM1.97266 8.44141C1.38672 8.44141 0.917969 7.96094 0.917969 7.375C0.917969 6.78906 1.375 6.32031 1.97266 6.32031H24.0156C24.6133 6.32031 25.082 6.78906 25.082 7.375C25.082 7.96094 24.6016 8.44141 24.0156 8.44141H1.97266ZM1.97266 14.582C1.38672 14.582 0.917969 14.1016 0.917969 13.5156C0.917969 12.9297 1.375 12.4609 1.97266 12.4609H24.0156C24.6133 12.4609 25.082 12.9297 25.082 13.5156C25.082 14.1016 24.6016 14.582 24.0156 14.582H1.97266ZM1.97266 20.7227C1.38672 20.7227 0.917969 20.2422 0.917969 19.6562C0.917969 19.0703 1.375 18.6016 1.97266 18.6016H14.3008C14.8984 18.6016 15.3672 19.0703 15.3672 19.6562C15.3672 20.2422 14.8867 20.7227 14.3008 20.7227H1.97266Z" fill="white"/>
</svg>
