<svg width="18" height="21" viewBox="0 0 18 21" fill="none" xmlns="http://www.w3.org/2000/svg">
<path d="M8.42871 4.62402C8.30566 4.62402 8.23535 4.54492 8.21777 4.43066C7.96289 3.01562 7.98047 2.9541 6.46875 2.68164C6.3457 2.66406 6.2666 2.58496 6.2666 2.4707C6.2666 2.34766 6.3457 2.27734 6.45996 2.25098C7.98926 1.96973 7.96289 1.91699 8.21777 0.501953C8.23535 0.387695 8.30566 0.308594 8.42871 0.308594C8.55176 0.308594 8.62207 0.387695 8.64844 0.501953C8.89453 1.92578 8.87695 1.9873 10.3975 2.25098C10.5117 2.26855 10.5908 2.34766 10.5908 2.4707C10.5908 2.58496 10.5117 2.66406 10.3975 2.68164C8.87695 2.96289 8.89453 3.02441 8.64844 4.43066C8.62207 4.54492 8.55176 4.62402 8.42871 4.62402ZM4.1748 10.7676C3.99023 10.7676 3.8584 10.6445 3.84082 10.4512C3.55078 8.12207 3.4541 8.05176 1.07227 7.67383C0.861328 7.64746 0.738281 7.5332 0.738281 7.34863C0.738281 7.16406 0.861328 7.04102 1.03711 7.01465C3.44531 6.56641 3.55078 6.56641 3.84082 4.2373C3.8584 4.04395 3.99023 3.9209 4.1748 3.9209C4.35059 3.9209 4.48242 4.04395 4.5 4.22852C4.80762 6.60156 4.88672 6.68066 7.30371 7.01465C7.4707 7.03223 7.60254 7.16406 7.60254 7.34863C7.60254 7.52441 7.47949 7.64746 7.30371 7.67383C4.87793 8.13086 4.80762 8.13965 4.5 10.4688C4.48242 10.6445 4.35059 10.7676 4.1748 10.7676ZM10.248 20.5146C9.98438 20.5146 9.77344 20.3213 9.72949 20.04C9.05273 15.2764 8.41113 14.6611 3.73535 14.0371C3.44531 14.002 3.24316 13.7822 3.24316 13.5098C3.24316 13.2373 3.44531 13.0264 3.74414 12.9912C8.42871 12.4727 9.09668 11.752 9.72949 6.98828C9.77344 6.70703 9.97559 6.51367 10.248 6.51367C10.5205 6.51367 10.7227 6.70703 10.7666 6.98828C11.4258 11.752 12.0762 12.4463 16.7607 12.9912C17.0508 13.0264 17.2529 13.2373 17.2529 13.5098C17.2529 13.791 17.0508 14.002 16.7607 14.0371C12.0674 14.5557 11.3994 15.2764 10.7666 20.04C10.7227 20.3213 10.5205 20.5146 10.248 20.5146Z" fill="#30014C"/>
</svg>
