<svg width="10" height="16" viewBox="0 0 10 16" fill="none" xmlns="http://www.w3.org/2000/svg">
<path d="M0.366211 8.1543C0.375 7.85547 0.480469 7.60059 0.717773 7.37207L7.57324 0.666016C7.75781 0.472656 8.00391 0.375977 8.28516 0.375977C8.85645 0.375977 9.30469 0.81543 9.30469 1.38672C9.30469 1.66797 9.19043 1.92285 8.99707 2.125L2.81836 8.1543L8.99707 14.1836C9.19043 14.377 9.30469 14.6318 9.30469 14.9131C9.30469 15.4932 8.85645 15.9326 8.28516 15.9326C8.00391 15.9326 7.75781 15.8359 7.57324 15.6426L0.717773 8.93652C0.480469 8.70801 0.366211 8.45312 0.366211 8.1543Z" fill="white"/>
</svg>
