<svg width="24" height="19" viewBox="0 0 24 19" fill="none" xmlns="http://www.w3.org/2000/svg">
<path d="M3.9668 13.7139L2.77148 8.85352C2.75391 8.85352 2.72754 8.85352 2.70996 8.85352C1.48828 8.85352 0.486328 7.86035 0.486328 6.62988C0.486328 5.41699 1.47949 4.42383 2.70996 4.42383C3.92285 4.42383 4.91602 5.42578 4.91602 6.62988C4.91602 6.95508 4.8457 7.27148 4.72266 7.54395L7.30664 9.41602C7.57031 9.60059 7.72852 9.53906 7.86914 9.33691L10.9102 4.82812C10.2334 4.4502 9.78516 3.72949 9.78516 2.90332C9.78516 1.68164 10.7783 0.688477 12 0.688477C13.2217 0.688477 14.2148 1.69043 14.2148 2.90332C14.2148 3.72949 13.7578 4.4502 13.0898 4.82812L16.1221 9.33691C16.2715 9.54785 16.4561 9.60938 16.7285 9.4248L19.2861 7.5791C19.1455 7.28906 19.0752 6.97266 19.0752 6.62988C19.0752 5.42578 20.0684 4.42383 21.2812 4.42383C22.5117 4.42383 23.5049 5.41699 23.5049 6.62988C23.5049 7.86035 22.5029 8.85352 21.2812 8.85352C21.2637 8.85352 21.2461 8.85352 21.2285 8.85352L20.042 13.7139H3.9668ZM4.30078 15.0938H19.6992L19.4092 16.2539C19.0576 17.7041 18.2754 18.4248 16.7637 18.4248H7.23633C5.7334 18.4248 4.94238 17.6865 4.59082 16.2539L4.30078 15.0938Z" fill="#CCFF00"/>
</svg>
