<svg width="24" height="24" viewBox="0 0 24 24" fill="none" xmlns="http://www.w3.org/2000/svg">
<path fill-rule="evenodd" clip-rule="evenodd" d="M4.62474 20.2637C4.21551 20.673 3.63364 20.7458 3.32329 20.4355C3.07526 20.1875 3.07074 19.7752 3.29199 19.4066C3.11351 19.2606 3 19.0373 3 18.7885C3 18.3521 3.34038 18.003 3.7855 18.003H4.63854L7.63218 15.0093H3.7855C3.34911 15.0093 3 14.6515 3 14.2151C3 13.7787 3.34038 13.4296 3.7855 13.4296H9.21191L12.2055 10.436H3.7855C3.34911 10.436 3 10.0781 3 9.64173C3 9.20534 3.34038 8.85623 3.7855 8.85623H13.7853L16.7789 5.86259H3.7855C3.34911 5.86259 3 5.50475 3 5.06836C3 4.63197 3.34038 4.28286 3.7855 4.28286H18.3586L18.8964 3.74513C19.3138 3.32772 19.8894 3.24862 20.1998 3.55898C20.381 3.74019 20.4288 4.01677 20.3557 4.29703C20.358 4.29747 20.3604 4.29792 20.3628 4.29838C20.3596 4.30079 20.3565 4.30322 20.3534 4.30566C20.3003 4.50255 20.1877 4.70079 20.0199 4.86862L4.62474 20.2637ZM12.9671 19.5827H7.52238L9.10211 18.003H12.9671C13.4123 18.003 13.7614 18.3521 13.7614 18.7885C13.7614 19.2248 13.4035 19.5827 12.9671 19.5827ZM20.2025 15.0093H12.0957L13.6755 13.4296H20.2025C20.6476 13.4296 20.9967 13.7787 20.9967 14.2151C20.9967 14.6515 20.6389 15.0093 20.2025 15.0093ZM20.2025 10.436H16.6691L18.2488 8.85623H20.2025C20.6476 8.85623 20.9967 9.20534 20.9967 9.64173C20.9967 10.0781 20.6389 10.436 20.2025 10.436Z" fill="white"/>
</svg>
