<svg width="36" height="36" viewBox="0 0 36 36" fill="none" xmlns="http://www.w3.org/2000/svg">
<path d="M9.81836 10.418C9.87695 9.55859 10.3945 9.08984 11.3223 9.08984H20.668C21.6055 9.08984 22.1133 9.55859 22.1816 10.418H9.81836ZM7.82617 13.2402C7.96289 12.3125 8.43164 11.7852 9.4668 11.7852H22.5332C23.5684 11.7852 24.0371 12.3125 24.1738 13.2402H7.82617ZM11.2148 30.7988C11.8984 29.7832 12.2988 28.5723 12.2988 27.2832C12.2988 23.7676 9.4082 20.8672 5.88281 20.8672V17.8984C5.88281 15.877 6.9375 14.832 8.97852 14.832H23.0117C25.043 14.832 26.1074 15.8867 26.1074 17.8984V27.7324C26.1074 29.7441 25.043 30.7988 23.0117 30.7988H11.2148ZM5.89258 32.3125C3.13867 32.3125 0.863281 30.0469 0.863281 27.2832C0.863281 24.5293 3.13867 22.2637 5.89258 22.2637C8.64648 22.2637 10.9121 24.5293 10.9121 27.2832C10.9121 30.0273 8.61719 32.3125 5.89258 32.3125ZM4.23242 29.2559C4.23242 29.6953 4.68164 29.8906 5.05273 29.6562L8.29492 27.7324C8.66602 27.5176 8.63672 27.0488 8.24609 26.8145L5.05273 24.9004C4.68164 24.6758 4.23242 24.8711 4.23242 25.3105V29.2559Z" fill="white"/>
<circle cx="32" cy="4" r="4" fill="#CCFF00"/>
</svg>
