<svg width="16" height="4" viewBox="0 0 16 4" fill="none" xmlns="http://www.w3.org/2000/svg">
<path d="M2.15625 3.4375C1.28125 3.4375 0.578125 2.73438 0.578125 1.85938C0.578125 0.984375 1.28125 0.28125 2.15625 0.28125C3.03125 0.28125 3.73438 0.984375 3.73438 1.85938C3.73438 2.73438 3.03125 3.4375 2.15625 3.4375ZM8 3.4375C7.125 3.4375 6.42188 2.73438 6.42188 1.85938C6.42188 0.984375 7.125 0.28125 8 0.28125C8.86719 0.28125 9.57812 0.984375 9.57812 1.85938C9.57812 2.73438 8.86719 3.4375 8 3.4375ZM13.8359 3.4375C12.9609 3.4375 12.2578 2.73438 12.2578 1.85938C12.2578 0.984375 12.9609 0.28125 13.8359 0.28125C14.7109 0.28125 15.4141 0.984375 15.4141 1.85938C15.4141 2.73438 14.7109 3.4375 13.8359 3.4375Z" fill="white"/>
</svg>
