<svg width="10" height="12" viewBox="0 0 10 12" fill="none" xmlns="http://www.w3.org/2000/svg">
<path d="M5 11.7227C4.89453 11.7227 4.74805 11.6875 4.5957 11.6055C1.28516 9.79492 0.130859 8.96875 0.130859 6.87109V2.50586C0.130859 1.82617 0.394531 1.57422 0.96875 1.33984C1.61328 1.07617 3.76367 0.296875 4.39648 0.0976562C4.58984 0.0449219 4.80078 -0.00195312 5 -0.00195312C5.19336 -0.00195312 5.41016 0.0390625 5.59766 0.0976562C6.23047 0.308594 8.38672 1.07617 9.03125 1.33984C9.59961 1.58008 9.86914 1.82617 9.86914 2.50586V6.87109C9.86914 8.96875 8.76172 9.87695 5.4043 11.6055C5.25195 11.6816 5.09961 11.7227 5 11.7227ZM4.34961 8.5C4.57227 8.5 4.75977 8.38867 4.88867 8.18945L7.63086 3.91211C7.71875 3.7832 7.78906 3.63672 7.78906 3.50195C7.78906 3.19727 7.51953 2.99219 7.22656 2.99219C7.04492 2.99219 6.88086 3.09766 6.75195 3.29688L4.32617 7.17578L3.20117 5.74023C3.04883 5.55273 2.9082 5.48242 2.72656 5.48242C2.42188 5.48242 2.1875 5.72852 2.1875 6.02734C2.1875 6.17383 2.24023 6.31445 2.3457 6.44336L3.78125 8.18945C3.95117 8.40625 4.12695 8.5 4.34961 8.5Z" fill="#CCFF00"/>
</svg>
