<svg width="24" height="19" viewBox="0 0 24 19" fill="none" xmlns="http://www.w3.org/2000/svg">
<path d="M4.4668 13.7139L3.27148 8.85352C3.25391 8.85352 3.22754 8.85352 3.20996 8.85352C1.98828 8.85352 0.986328 7.86035 0.986328 6.62988C0.986328 5.41699 1.97949 4.42383 3.20996 4.42383C4.42285 4.42383 5.41602 5.42578 5.41602 6.62988C5.41602 6.95508 5.3457 7.27148 5.22266 7.54395L7.80664 9.41602C8.07031 9.60059 8.22852 9.53906 8.36914 9.33691L11.4102 4.82812C10.7334 4.4502 10.2852 3.72949 10.2852 2.90332C10.2852 1.68164 11.2783 0.688477 12.5 0.688477C13.7217 0.688477 14.7148 1.69043 14.7148 2.90332C14.7148 3.72949 14.2578 4.4502 13.5898 4.82812L16.6221 9.33691C16.7715 9.54785 16.9561 9.60938 17.2285 9.4248L19.7861 7.5791C19.6455 7.28906 19.5752 6.97266 19.5752 6.62988C19.5752 5.42578 20.5684 4.42383 21.7812 4.42383C23.0117 4.42383 24.0049 5.41699 24.0049 6.62988C24.0049 7.86035 23.0029 8.85352 21.7812 8.85352C21.7637 8.85352 21.7461 8.85352 21.7285 8.85352L20.542 13.7139H4.4668ZM4.80078 15.0938H20.1992L19.9092 16.2539C19.5576 17.7041 18.7754 18.4248 17.2637 18.4248H7.73633C6.2334 18.4248 5.44238 17.6865 5.09082 16.2539L4.80078 15.0938Z" fill="white"/>
</svg>
