<svg width="24" height="22" viewBox="0 0 24 22" fill="none" xmlns="http://www.w3.org/2000/svg">
<path d="M1.08203 11.2715C0.457031 11.2715 0.0761719 10.8418 0.0761719 10.334C0.0761719 10.0605 0.203125 9.77734 0.457031 9.5625L10.6328 1.01758C11.0625 0.666016 11.5312 0.490234 12 0.490234C12.4688 0.490234 12.9375 0.666016 13.3672 1.01758L18.1914 5.08008V3.3418C18.1914 2.91211 18.4844 2.62891 18.9238 2.62891H20.2422C20.6719 2.62891 20.9551 2.91211 20.9551 3.3418V7.39453L23.543 9.5625C23.7969 9.77734 23.9238 10.0605 23.9238 10.334C23.9238 10.8418 23.543 11.2715 22.9277 11.2715C22.625 11.2715 22.3516 11.1152 22.1172 10.9102L12.4199 2.77539C12.2832 2.6582 12.1367 2.60938 12 2.60938C11.8633 2.60938 11.7168 2.6582 11.5898 2.77539L1.88281 10.9102C1.64844 11.1152 1.38477 11.2715 1.08203 11.2715ZM3.24023 19.1621V11.6914L11.3945 4.85547C11.7656 4.54297 12.2246 4.5332 12.5957 4.85547L20.7598 11.6914V19.1621C20.7598 20.5684 19.8809 21.4082 18.4355 21.4082H5.55469C4.11914 21.4082 3.24023 20.5684 3.24023 19.1621ZM14.5781 12.3457C15.0566 12.2285 15.2031 12.1113 15.2031 11.5547V9.68945C15.2031 9.29883 15.0469 9.13281 14.5293 9.25977L11.7559 9.94336C11.2773 10.0703 11.1602 10.1777 11.1602 10.7441V14.9238C11.1602 15.3438 11.1309 15.4121 10.6621 15.5293L9.80273 15.7637C8.89453 15.998 8.19141 16.5352 8.19141 17.4531C8.19141 18.2832 8.81641 18.8789 9.7832 18.8789C11.1504 18.8789 12.0879 17.8926 12.0879 16.4961V13.3418C12.0879 13 12.1562 12.9316 12.3613 12.8828L14.5781 12.3457Z" fill="white" fill-opacity="0.5"/>
</svg>
